<svg xmlns="http://www.w3.org/2000/svg" viewBox="0 0 32 40" x="0px" y="0px"><title>Artboard 62</title><g data-name="01"><path d="M29.4741,21.1191l-2.3536-1.2676-9.9354,5.35a2.5,2.5,0,0,1-2.37,0L4.88,19.8515,2.5259,21.1191a1.0007,1.0007,0,0,0,0,1.7618l13,7a1.0032,1.0032,0,0,0,.9482,0l13-7a1.0007,1.0007,0,0,0,0-1.7618Z"/><path d="M29.4741,9.1191l-13-7a1.0065,1.0065,0,0,0-.9482,0l-13,7a1.0007,1.0007,0,0,0,0,1.7618l13,7a1.0032,1.0032,0,0,0,.9482,0l13-7a1.0007,1.0007,0,0,0,0-1.7618Z"/><path d="M29.4741,15.1191,27.12,13.8514l-9.9353,5.35a2.5,2.5,0,0,1-2.37,0L4.88,13.8514,2.5259,15.1191a1.0007,1.0007,0,0,0,0,1.7618l13,7a1.0032,1.0032,0,0,0,.9482,0l13-7a1.0007,1.0007,0,0,0,0-1.7618Z"/></g><text x="0" y="47" fill="#000000" font-size="5px" font-weight="bold" font-family="'Helvetica Neue', Helvetica, Arial-Unicode, Arial, Sans-serif">Created by ghufronagustian</text><text x="0" y="52" fill="#000000" font-size="5px" font-weight="bold" font-family="'Helvetica Neue', Helvetica, Arial-Unicode, Arial, Sans-serif">from the Noun Project</text></svg>