<svg width="27.965" height="27.965" xmlns="http://www.w3.org/2000/svg">

 <g>
  <title>background</title>
  <rect fill="none" id="canvas_background" height="514" width="514" y="-1" x="-1"/>
 </g>
 <g>
  <title>Layer 1</title>
  <g id="svg_1">
   <g id="c142_x">
    <path fill="#e45633" id="svg_2" d="m13.98,0c-7.721,0 -13.98,6.261 -13.98,13.983c0,7.721 6.259,13.982 13.98,13.982c7.725,0 13.985,-6.262 13.985,-13.982c0,-7.722 -6.26,-13.983 -13.985,-13.983zm6.012,17.769l-2.227,2.224c0,0 -3.523,-3.78 -3.786,-3.78c-0.259,0 -3.783,3.78 -3.783,3.78l-2.228,-2.224c0,0 3.784,-3.472 3.784,-3.781c0,-0.314 -3.784,-3.787 -3.784,-3.787l2.228,-2.229c0,0 3.553,3.782 3.783,3.782c0.232,0 3.786,-3.782 3.786,-3.782l2.227,2.229c0,0 -3.785,3.523 -3.785,3.787c0,0.251 3.785,3.781 3.785,3.781z"/>
   </g>
   <g id="Capa_1_104_"/>
  </g>
  <g id="svg_3"/>
  <g id="svg_4"/>
  <g id="svg_5"/>
  <g id="svg_6"/>
  <g id="svg_7"/>
  <g id="svg_8"/>
  <g id="svg_9"/>
  <g id="svg_10"/>
  <g id="svg_11"/>
  <g id="svg_12"/>
  <g id="svg_13"/>
  <g id="svg_14"/>
  <g id="svg_15"/>
  <g id="svg_16"/>
  <g id="svg_17"/>
 </g>
</svg>