<svg xmlns="http://www.w3.org/2000/svg" viewBox="0 0 100 125" x="0px" y="0px"><title>TEXTURES</title><g data-name="Capa 2"><path d="M65,5H5V95H95V5Zm5.28,24.55.29.29.19.35.13.38,0,.38,0,.39-.13.38-.19.36-.29.28-.29.23-.39.16-.38.09h-.38l-.39-.09-.35-.16-.32-.23-.29-.28-.18-.36-.14-.38,0-.39,0-.38.14-.38.18-.35.29-.29.32-.23.35-.16.39-.09h.38l.38.09.39.16Zm-.2-2.23,4.84-4.87L78,22l-.45,3-4.82,4.86,0,0-.16-.51-.29-.48-.32-.45-.39-.38-.44-.32-.48-.29Zm1.19,5.46L80,24.05l8.73,8.73.86.86-1.88-.42-1.92-.32-1.92-.22-2-.16-1.92,0-1.92,0-2,.16-1.92.22-1.92.32-1.88.42Zm3.65-15.22-4.84-4.85v0l.52-.16.48-.28.44-.33.39-.38.32-.44.29-.48.16-.52h0l4.82,4.86L78,18ZM82,22l3.06.41,4.83,4.87-.51.15-.48.29-.44.32-.39.38-.32.45-.29.48-.16.51,0,0-4.82-4.86Zm7.41,10-.19-.36-.13-.38,0-.39,0-.38.13-.38.19-.35.29-.29.32-.23.36-.16.38-.09h.38l.38.09.39.16.29.23.29.29.18.35.14.38,0,.38,0,.39-.14.38-.18.36-.29.28-.29.23-.39.16-.38.09h-.38l-.38-.09L90,32.59l-.32-.23ZM85.05,21h7.46l.12,2.14.22,2.18.36,2.14.45,2.11h0l-.43-.42Zm-3-3,.45-3,4.82-4.86h0l.16.52.29.48.32.44.39.38.44.33.48.28.51.16v0l-4.83,4.85Zm11.6-7.54h0l-.44,2.07-.36,2.15-.22,2.16L92.51,19v0H85.05l8.16-8.15ZM90,7.4l.36-.16.38-.1h.38l.38.1.39.16.29.22.29.29.18.35.14.39,0,.38,0,.38-.14.38-.18.36-.29.29-.29.21-.39.16-.38.11h-.38l-.38-.11L90,10.65l-.32-.21-.29-.29-.19-.36-.13-.38,0-.38,0-.38.13-.39.19-.35.29-.29ZM72.29,6.79l1.92.32,1.92.22,2,.16,1.92,0,1.92,0,2-.16,1.92-.22,1.92-.32,1.88-.41L89,6.94l-9,9L73.41,9.38l-3-3ZM67.17,8.65l.14-.39.18-.35.29-.29.32-.22.35-.16.39-.1h.38l.38.1L70,7.4l.29.22.29.29.19.35.13.39,0,.38,0,.38-.13.38-.19.36-.29.29-.29.21-.39.16-.38.11h-.38l-.39-.11-.35-.16-.32-.21-.29-.29-.18-.36-.14-.38,0-.38Zm-.79,1.79,7.83,7.83L75,19H67.49v0l-.13-2.15-.21-2.16-.36-2.15-.44-2.07Zm.41,17,.36-2.14.21-2.18L67.49,21H75L67.1,28.87l-.72.71h0ZM37.36,76.82l-.21-2.16-.36-2.15-.44-2.07h0l7.83,7.83L45,79H37.49v0ZM37.15,69l0-.38.14-.39.18-.35.29-.29.32-.22.35-.16.39-.1h.38l.38.1.39.16.29.22.29.29.19.35.13.39,0,.38,0,.38-.13.38-.19.36-.29.29-.29.21-.39.16-.38.11h-.38l-.39-.11-.35-.16-.32-.21-.29-.29-.18-.36-.14-.38Zm7.77,8.53-4.84-4.85v0l.52-.16.48-.28.44-.33.39-.38.32-.44.29-.48.16-.52h0l4.82,4.86L48,78ZM48,82l-.45,3-4.82,4.86,0,0-.16-.51-.29-.48-.32-.45-.39-.38-.44-.32-.48-.29-.52-.15,4.84-4.87ZM43.41,69.38l-3-3,1.88.41,1.92.32,1.92.22,1.95.16,1.92,0,1.92,0,1.95-.16,1.92-.22,1.92-.32,1.88-.41-.56.56-9,9Zm16.31-1.76L60,67.4l.36-.16.38-.1h.38l.38.1.39.16.29.22.29.29.18.35.14.39,0,.38,0,.38-.14.38-.18.36-.29.29-.29.21-.39.16-.38.11h-.38l-.38-.11L60,70.65l-.32-.21-.29-.29-.19-.36-.13-.38,0-.38,0-.38.13-.39.19-.35ZM55.08,82.45l4.83,4.87-.51.15-.48.29-.44.32-.39.38-.32.45-.29.48-.16.51,0,0-4.82-4.86L52,82Zm-2.61-7.51,4.82-4.86h0l.16.52.29.48.32.44.39.38.44.33.48.28.51.16v0l-4.83,4.85L52,78Zm10.74-4.09.41-.41h0l-.44,2.07-.36,2.15-.22,2.16L62.51,79v0H55.05ZM40.28,59.55l.29.29.19.35.13.38,0,.38,0,.39-.13.38-.19.36-.29.28-.29.23-.39.16-.38.09h-.38l-.39-.09-.35-.16-.32-.23-.29-.28-.18-.36-.14-.38,0-.39,0-.38.14-.38.18-.35.29-.29.32-.23.35-.16.39-.09h.38l.38.09.39.16Zm-.2-2.23,4.84-4.87L48,52l-.45,3-4.82,4.86,0,0-.16-.51-.29-.48-.32-.45-.39-.38-.44-.32-.48-.29Zm1.19,5.46L50,54.05l8.73,8.73.86.86-1.88-.42-1.92-.32-1.92-.22-1.95-.16-1.92,0-1.92,0-1.95.16-1.92.22-1.92.32-1.88.42Zm3.65-15.22-4.84-4.85v0l.52-.16.48-.28.44-.33.39-.38.32-.44.29-.48.16-.52h0l4.82,4.86L48,48ZM59.43,62.08l-.19-.36-.13-.38,0-.39,0-.38.13-.38.19-.35.29-.29.32-.23.36-.16.38-.09h.38l.38.09.39.16.29.23.29.29.18.35.14.38,0,.38,0,.39-.14.38-.18.36-.29.28-.29.23-.39.16-.38.09h-.38l-.38-.09L60,62.59l-.32-.23Zm0-4.61-.48.29-.44.32-.39.38-.32.45-.29.48-.16.51,0,0-4.82-4.86L52,52l3.06.41,4.83,4.87Zm3.81-16.62.41-.41h0l-.44,2.07-.36,2.15-.22,2.16L62.51,49v0H55.05ZM52,48l.45-3,4.82-4.86h0l.16.52.29.48.32.44.39.38.44.33.48.28.51.16v0l-4.83,4.85Zm10.81-8.57-.14.38-.18.36-.29.29-.29.21-.39.16-.38.11h-.38l-.38-.11L60,40.65l-.32-.21-.29-.29-.19-.36-.13-.38,0-.38,0-.38.13-.39.19-.35.29-.29L60,37.4l.36-.16.38-.1h.38l.38.1.39.16.29.22.29.29.18.35.14.39,0,.38ZM59,36.94l-9,9-6.59-6.58-3-3,1.88.41,1.92.32,1.92.22,1.95.16,1.92,0,1.92,0,1.95-.16,1.92-.22,1.92-.32,1.88-.41Zm-18.46,1,.19.35.13.39,0,.38,0,.38-.13.38-.19.36-.29.29-.29.21-.39.16-.38.11h-.38l-.39-.11-.35-.16-.32-.21-.29-.29-.18-.36-.14-.38,0-.38,0-.38.14-.39.18-.35.29-.29.32-.22.35-.16.39-.1h.38l.38.1.39.16.29.22Zm3.64,10.36L45,49H37.49v0l-.13-2.15-.21-2.16-.36-2.15-.44-2.07h0Zm-7.42,9.2.36-2.14.21-2.18L37.49,51H45L37.1,58.87l-.72.71h0Zm26.83,2.11-.43-.42L55.05,51h7.46l.12,2.14.22,2.18.36,2.14.45,2.11ZM59.4,27.47l-.48.29-.44.32-.39.38-.32.45-.29.48-.16.51,0,0-4.82-4.86L52,22l3.06.41,4.83,4.87ZM60,29.32l.36-.16.38-.09h.38l.38.09.39.16.29.23.29.29.18.35.14.38,0,.38,0,.39-.14.38-.18.36-.29.28-.29.23-.39.16-.38.09h-.38l-.38-.09L60,32.59l-.32-.23-.29-.28-.19-.36-.13-.38,0-.39,0-.38.13-.38.19-.35.29-.29Zm-1.31,3.46.86.86-1.88-.42-1.92-.32-1.92-.22-1.95-.16-1.92,0-1.92,0-1.95.16-1.92.22-1.92.32-1.88.42.86-.86L50,24.05ZM44.92,17.56l-4.84-4.85v0l.52-.16.48-.28.44-.33.39-.38.32-.44.29-.48.16-.52h0l4.82,4.86L48,18Zm2.61,7.51-4.82,4.86,0,0-.16-.51-.29-.48-.32-.45-.39-.38-.44-.32-.48-.29-.52-.15,4.84-4.87L48,22Zm-7.25,4.48.29.29.19.35.13.38,0,.38,0,.39-.13.38-.19.36-.29.28-.29.23-.39.16-.38.09h-.38l-.39-.09-.35-.16-.32-.23-.29-.28-.18-.36-.14-.38,0-.39,0-.38.14-.38.18-.35.29-.29.32-.23.35-.16.39-.09h.38l.38.09.39.16Zm23.34,0-.43-.42L55.05,21h7.46l.12,2.14.22,2.18.36,2.14.45,2.11ZM52,18l.45-3,4.82-4.86h0l.16.52.29.48.32.44.39.38.44.33.48.28.51.16v0l-4.83,4.85Zm11.6-7.54h0l-.44,2.07-.36,2.15-.22,2.16L62.51,19v0H55.05l8.16-8.15ZM60,7.4l.36-.16.38-.1h.38l.38.1.39.16.29.22.29.29.18.35.14.39,0,.38,0,.38-.14.38-.18.36-.29.29-.29.21-.39.16-.38.11h-.38l-.38-.11L60,10.65l-.32-.21-.29-.29-.19-.36-.13-.38,0-.38,0-.38.13-.39.19-.35.29-.29ZM42.29,6.79l1.92.32,1.92.22,1.95.16,1.92,0,1.92,0,1.95-.16,1.92-.22,1.92-.32,1.88-.41L59,6.94l-9,9L43.41,9.38l-3-3ZM37.17,8.65l.14-.39.18-.35.29-.29.32-.22.35-.16.39-.1h.38l.38.1L40,7.4l.29.22.29.29.19.35.13.39,0,.38,0,.38-.13.38-.19.36-.29.29-.29.21-.39.16-.38.11h-.38l-.39-.11-.35-.16-.32-.21-.29-.29-.18-.36-.14-.38,0-.38Zm-.79,1.79,7.83,7.83L45,19H37.49v0l-.13-2.15-.21-2.16-.36-2.15-.44-2.07Zm.41,17,.36-2.14.21-2.18L37.49,21H45L37.1,28.87l-.72.71h0ZM10.28,29.55l.29.29.19.35.13.38,0,.38,0,.39-.13.38-.19.36-.29.28-.29.23-.39.16-.38.09H8.84l-.39-.09-.35-.16-.32-.23-.29-.28-.18-.36-.14-.38,0-.39,0-.38.14-.38.18-.35.29-.29.32-.23.35-.16.39-.09h.38l.38.09.39.16Zm-.2-2.23,4.84-4.87L18,22l-.45,3-4.82,4.86,0,0-.16-.51-.29-.48-.32-.45-.39-.38-.44-.32-.48-.29Zm1.19,5.46L20,24.05l8.73,8.73.86.86-1.88-.42-1.92-.32-1.92-.22-1.95-.16-1.92,0-1.92,0-1.95.16-1.92.22-1.92.32-1.88.42Zm3.65-15.22-4.84-4.85v0l.52-.16.48-.28.44-.33.39-.38.32-.44.29-.48.16-.52h0l4.82,4.86L18,18ZM22,22l3.06.41,4.83,4.87-.51.15-.48.29-.44.32-.39.38-.32.45-.29.48-.16.51,0,0-4.82-4.86Zm7.41,10-.19-.36-.13-.38,0-.39,0-.38.13-.38.19-.35.29-.29.32-.23.36-.16.38-.09h.38l.38.09.39.16.29.23.29.29.18.35.14.38,0,.38,0,.39-.14.38-.18.36-.29.28-.29.23-.39.16-.38.09h-.38l-.38-.09L30,32.59l-.32-.23ZM25.05,21h7.46l.12,2.14.22,2.18.36,2.14.45,2.11h0l-.43-.42Zm-3-3,.45-3,4.82-4.86h0l.16.52.29.48.32.44.39.38.44.33.48.28.51.16v0l-4.83,4.85Zm11.6-7.54h0l-.44,2.07-.36,2.15-.22,2.16L32.51,19v0H25.05l8.16-8.15ZM30,7.4l.36-.16.38-.1h.38l.38.1.39.16.29.22.29.29.18.35.14.39,0,.38,0,.38-.14.38-.18.36-.29.29-.29.21-.39.16-.38.11h-.38l-.38-.11L30,10.65l-.32-.21-.29-.29-.19-.36-.13-.38,0-.38,0-.38.13-.39.19-.35.29-.29ZM12.29,6.79l1.92.32,1.92.22,1.95.16,1.92,0,1.92,0,1.95-.16,1.92-.22,1.92-.32,1.88-.41L29,6.94l-9,9L13.41,9.38l-3-3ZM7.17,8.65l.14-.39.18-.35.29-.29L8.1,7.4l.35-.16.39-.1h.38l.38.1L10,7.4l.29.22.29.29.19.35.13.39,0,.38,0,.38-.13.38-.19.36-.29.29-.29.21-.39.16-.38.11H8.84l-.39-.11-.35-.16-.32-.21-.29-.29-.18-.36-.14-.38,0-.38Zm-.79,1.79,7.83,7.83L15,19H7.49v0l-.13-2.15-.21-2.16-.36-2.15-.44-2.07Zm.41,17,.36-2.14.21-2.18L7.49,21H15L7.1,28.87l-.72.71h0ZM33.21,40.85l.41-.41h0l-.44,2.07-.36,2.15-.22,2.16L32.51,49v0H25.05ZM22,48l.45-3,4.82-4.86h0l.16.52.29.48.32.44.39.38.44.33.48.28.51.16v0l-4.83,4.85Zm10.81-8.57-.14.38-.18.36-.29.29-.29.21-.39.16-.38.11h-.38l-.38-.11L30,40.65l-.32-.21-.29-.29-.19-.36-.13-.38,0-.38,0-.38.13-.39.19-.35.29-.29L30,37.4l.36-.16.38-.1h.38l.38.1.39.16.29.22.29.29.18.35.14.39,0,.38ZM29,36.94l-9,9-6.59-6.58-3-3,1.88.41,1.92.32,1.92.22,1.95.16,1.92,0,1.92,0,1.95-.16,1.92-.22,1.92-.32,1.88-.41Zm-4,15.51,4.83,4.87-.51.15-.48.29-.44.32-.39.38-.32.45-.29.48-.16.51,0,0-4.82-4.86L22,52ZM18,48l-3.06-.42-4.84-4.85v0l.52-.16.48-.28.44-.33.39-.38.32-.44.29-.48.16-.52h0l4.82,4.86ZM10.57,37.91l.19.35.13.39,0,.38,0,.38-.13.38-.19.36-.29.29-.29.21-.39.16-.38.11H8.84l-.39-.11-.35-.16-.32-.21-.29-.29-.18-.36-.14-.38,0-.38,0-.38.14-.39.18-.35.29-.29.32-.22.35-.16.39-.1h.38l.38.1.39.16.29.22Zm3.64,10.36L15,49H7.49v0l-.13-2.15-.21-2.16-.36-2.15-.44-2.07h0ZM18,52l-.45,3-4.82,4.86,0,0-.16-.51-.29-.48-.32-.45-.39-.38-.44-.32-.48-.29-.52-.15,4.84-4.87ZM6.79,57.47l.36-2.14.21-2.18L7.49,51H15L7.1,58.87l-.72.71h0Zm.38,3.1.14-.38.18-.35.29-.29.32-.23.35-.16.39-.09h.38l.38.09.39.16.29.23.29.29.19.35.13.38,0,.38,0,.39-.13.38-.19.36-.29.28-.29.23-.39.16-.38.09H8.84l-.39-.09-.35-.16-.32-.23-.29-.28-.18-.36-.14-.38,0-.39Zm4.1,2.21L20,54.05l8.73,8.73.86.86-1.88-.42-1.92-.32-1.92-.22-1.95-.16-1.92,0-1.92,0-1.95.16-1.92.22-1.92.32-1.88.42Zm18.16-.7-.19-.36-.13-.38,0-.39,0-.38.13-.38.19-.35.29-.29.32-.23.36-.16.38-.09h.38l.38.09.39.16.29.23.29.29.18.35.14.38,0,.38,0,.39-.14.38-.18.36-.29.28-.29.23-.39.16-.38.09h-.38l-.38-.09L30,62.59l-.32-.23ZM25.05,51h7.46l.12,2.14.22,2.18.36,2.14.45,2.11h0l-.43-.42ZM7.36,76.82l-.21-2.16-.36-2.15-.44-2.07h0l7.83,7.83L15,79H7.49v0ZM7.15,69l0-.38.14-.39.18-.35.29-.29.32-.22.35-.16.39-.1h.38l.38.1.39.16.29.22.29.29.19.35.13.39,0,.38,0,.38-.13.38-.19.36-.29.29-.29.21-.39.16-.38.11H8.84l-.39-.11-.35-.16-.32-.21-.29-.29-.18-.36-.14-.38Zm7.77,8.53-4.84-4.85v0l.52-.16.48-.28.44-.33.39-.38.32-.44.29-.48.16-.52h0l4.82,4.86L18,78ZM18,82l-.45,3-4.82,4.86,0,0-.16-.51-.29-.48-.32-.45-.39-.38-.44-.32-.48-.29-.52-.15,4.84-4.87ZM13.41,69.38l-3-3,1.88.41,1.92.32,1.92.22,1.95.16,1.92,0,1.92,0,1.95-.16,1.92-.22,1.92-.32,1.88-.41-.56.56-9,9Zm16.31-1.76L30,67.4l.36-.16.38-.1h.38l.38.1.39.16.29.22.29.29.18.35.14.39,0,.38,0,.38-.14.38-.18.36-.29.29-.29.21-.39.16-.38.11h-.38l-.38-.11L30,70.65l-.32-.21-.29-.29-.19-.36-.13-.38,0-.38,0-.38.13-.39.19-.35ZM25.08,82.45l4.83,4.87-.51.15-.48.29-.44.32-.39.38-.32.45-.29.48-.16.51,0,0-4.82-4.86L22,82Zm-2.61-7.51,4.82-4.86h0l.16.52.29.48.32.44.39.38.44.33.48.28.51.16v0l-4.83,4.85L22,78Zm10.74-4.09.41-.41h0l-.44,2.07-.36,2.15-.22,2.16L32.51,79v0H25.05ZM6.38,89.58h0l.45-2.11.36-2.14.21-2.18L7.49,81H15L7.1,88.87Zm3.61,3-.39.16-.38.09H8.84l-.39-.09-.35-.16-.32-.23-.29-.28-.18-.36-.14-.38,0-.39,0-.38.14-.38.18-.35.29-.29.32-.23.35-.16.39-.09h.38l.38.09.39.16.29.23.29.29.19.35.13.38,0,.38,0,.39-.13.38-.19.36-.29.28Zm17.72.63-1.92-.32-1.92-.22-1.95-.16-1.92,0-1.92,0-1.95.16-1.92.22-1.92.32-1.88.42.86-.86L20,84.05l8.73,8.73.86.86Zm5.12-1.88-.14.38-.18.36-.29.28-.29.23-.39.16-.38.09h-.38l-.38-.09L30,92.59l-.32-.23-.29-.28-.19-.36-.13-.38,0-.39,0-.38.13-.38.19-.35.29-.29.32-.23.36-.16.38-.09h.38l.38.09.39.16.29.23.29.29.18.35.14.38,0,.38Zm.79-1.76-.43-.42L25.05,81h7.46l.12,2.14.22,2.18.36,2.14.45,2.11Zm2.76,0h0l.45-2.11.36-2.14.21-2.18L37.49,81H45L37.1,88.87Zm3.61,3-.39.16-.38.09h-.38l-.39-.09-.35-.16-.32-.23-.29-.28-.18-.36-.14-.38,0-.39,0-.38.14-.38.18-.35.29-.29.32-.23.35-.16.39-.09h.38l.38.09.39.16.29.23.29.29.19.35.13.38,0,.38,0,.39-.13.38-.19.36-.29.28Zm17.72.63-1.92-.32-1.92-.22-1.95-.16-1.92,0-1.92,0-1.95.16-1.92.22-1.92.32-1.88.42.86-.86L50,84.05l8.73,8.73.86.86Zm5.12-1.88-.14.38-.18.36-.29.28-.29.23-.39.16-.38.09h-.38l-.38-.09L60,92.59l-.32-.23-.29-.28-.19-.36-.13-.38,0-.39,0-.38.13-.38.19-.35.29-.29.32-.23.36-.16.38-.09h.38l.38.09.39.16.29.23.29.29.18.35.14.38,0,.38Zm.79-1.76-.43-.42L55.05,81h7.46l.12,2.14.22,2.18.36,2.14.45,2.11Zm2.76,0h0l.45-2.11.36-2.14.21-2.18L67.49,81H75L67.1,88.87ZM93.21,70.85l.41-.41h0l-.44,2.07-.36,2.15-.22,2.16L92.51,79v0H85.05ZM82,78l.45-3,4.82-4.86h0l.16.52.29.48.32.44.39.38.44.33.48.28.51.16v0l-4.83,4.85Zm10.81-8.57-.14.38-.18.36-.29.29-.29.21-.39.16-.38.11h-.38l-.38-.11L90,70.65l-.32-.21-.29-.29-.19-.36-.13-.38,0-.38,0-.38.13-.39.19-.35.29-.29L90,67.4l.36-.16.38-.1h.38l.38.1.39.16.29.22.29.29.18.35.14.39,0,.38ZM89,66.94l-9,9-6.59-6.58-3-3,1.88.41,1.92.32,1.92.22,2,.16,1.92,0,1.92,0,2-.16,1.92-.22,1.92-.32,1.88-.41Zm-4,15.51,4.83,4.87-.51.15-.48.29-.44.32-.39.38-.32.45-.29.48-.16.51,0,0-4.82-4.86L82,82ZM78,78l-3.06-.42-4.84-4.85v0l.52-.16.48-.28.44-.33.39-.38.32-.44.29-.48.16-.52h0l4.82,4.86ZM70.57,67.91l.19.35.13.39,0,.38,0,.38-.13.38-.19.36-.29.29-.29.21-.39.16-.38.11h-.38l-.39-.11-.35-.16-.32-.21-.29-.29-.18-.36-.14-.38,0-.38,0-.38.14-.39.18-.35.29-.29.32-.22.35-.16.39-.1h.38l.38.1.39.16.29.22Zm3.64,10.36L75,79H67.49v0l-.13-2.15-.21-2.16-.36-2.15-.44-2.07h0ZM78,82l-.45,3-4.82,4.86,0,0-.16-.51-.29-.48-.32-.45-.39-.38-.44-.32-.48-.29-.52-.15,4.84-4.87ZM70,92.59l-.39.16-.38.09h-.38l-.39-.09-.35-.16-.32-.23-.29-.28-.18-.36-.14-.38,0-.39,0-.38.14-.38.18-.35.29-.29.32-.23.35-.16.39-.09h.38l.38.09.39.16.29.23.29.29.19.35.13.38,0,.38,0,.39-.13.38-.19.36-.29.28Zm17.72.63-1.92-.32-1.92-.22-2-.16-1.92,0-1.92,0-2,.16-1.92.22-1.92.32-1.88.42.86-.86L80,84.05l8.73,8.73.86.86Zm5.12-1.88-.14.38-.18.36-.29.28-.29.23-.39.16-.38.09h-.38l-.38-.09L90,92.59l-.32-.23-.29-.28-.19-.36-.13-.38,0-.39,0-.38.13-.38.19-.35.29-.29.32-.23.36-.16.38-.09h.38l.38.09.39.16.29.23.29.29.18.35.14.38,0,.38Zm.79-1.76-.43-.42L85.05,81h7.46l.12,2.14.22,2.18.36,2.14.45,2.11Zm-23.34-30,.29.29.19.35.13.38,0,.38,0,.39-.13.38-.19.36-.29.28-.29.23-.39.16-.38.09h-.38l-.39-.09-.35-.16-.32-.23-.29-.28-.18-.36-.14-.38,0-.39,0-.38.14-.38.18-.35.29-.29.32-.23.35-.16.39-.09h.38l.38.09.39.16Zm-.2-2.23,4.84-4.87L78,52l-.45,3-4.82,4.86,0,0-.16-.51-.29-.48-.32-.45-.39-.38-.44-.32-.48-.29Zm1.19,5.46L80,54.05l8.73,8.73.86.86-1.88-.42-1.92-.32-1.92-.22-2-.16-1.92,0-1.92,0-2,.16-1.92.22-1.92.32-1.88.42Zm3.65-15.22-4.84-4.85v0l.52-.16.48-.28.44-.33.39-.38.32-.44.29-.48.16-.52h0l4.82,4.86L78,48ZM82,52l3.06.41,4.83,4.87-.51.15-.48.29-.44.32-.39.38-.32.45-.29.48-.16.51,0,0-4.82-4.86Zm7.41,10-.19-.36-.13-.38,0-.39,0-.38.13-.38.19-.35.29-.29.32-.23.36-.16.38-.09h.38l.38.09.39.16.29.23.29.29.18.35.14.38,0,.38,0,.39-.14.38-.18.36-.29.28-.29.23-.39.16-.38.09h-.38l-.38-.09L90,62.59l-.32-.23ZM85.05,51h7.46l.12,2.14.22,2.18.36,2.14.45,2.11h0l-.43-.42Zm-3-3,.45-3,4.82-4.86h0l.16.52.29.48.32.44.39.38.44.33.48.28.51.16v0l-4.83,4.85Zm11.19-5.47-.36,2.15-.22,2.16L92.51,49v0H85.05l8.16-8.15.41-.41h0Zm-.38-3.1-.14.38-.18.36-.29.29-.29.21-.39.16-.38.11h-.38l-.38-.11L90,40.65l-.32-.21-.29-.29-.19-.36-.13-.38,0-.38,0-.38.13-.39.19-.35.29-.29L90,37.4l.36-.16.38-.1h.38l.38.1.39.16.29.22.29.29.18.35.14.39,0,.38ZM89,36.94l-9,9-6.59-6.58-3-3,1.88.41,1.92.32,1.92.22,2,.16,1.92,0,1.92,0,2-.16,1.92-.22,1.92-.32,1.88-.41Zm-18.46,1,.19.35.13.39,0,.38,0,.38-.13.38-.19.36-.29.29-.29.21-.39.16-.38.11h-.38l-.39-.11-.35-.16-.32-.21-.29-.29-.18-.36-.14-.38,0-.38,0-.38.14-.39.18-.35.29-.29.32-.22.35-.16.39-.1h.38l.38.1.39.16.29.22Zm3.64,10.36L75,49H67.49v0l-.13-2.15-.21-2.16-.36-2.15-.44-2.07h0Zm-7.42,9.2.36-2.14.21-2.18L67.49,51H75L67.1,58.87l-.72.71h0Z"/></g><text x="0" y="115" fill="#000000" font-size="5px" font-weight="bold" font-family="'Helvetica Neue', Helvetica, Arial-Unicode, Arial, Sans-serif">Created by Juan C</text><text x="0" y="120" fill="#000000" font-size="5px" font-weight="bold" font-family="'Helvetica Neue', Helvetica, Arial-Unicode, Arial, Sans-serif">from the Noun Project</text></svg>