<svg xmlns="http://www.w3.org/2000/svg" xmlns:xlink="http://www.w3.org/1999/xlink" version="1.1" x="0px" y="0px" viewBox="0 0 300 375" style="enable-background:new 0 0 300 300;" xml:space="preserve"><g><path d="M201.7,50.5H90.9L12.4,129l133.9,153.3L280.2,129L201.7,50.5z M121.4,122.9l24.9-48.4l24.9,48.4H121.4z M173.6,134.9   l-27.7,99.3L119,134.9H173.6z M106.6,134.9l26.2,96.9l-84.6-96.9H106.6z M186,134.9h58.4l-85.8,98.3L186,134.9z M241.6,122.9h-52.2   l7.3-44.9L241.6,122.9z M185.3,73.5l-6.2,38.4l-19.8-38.4H185.3z M113.6,111.9l-6.2-38.4h26L113.6,111.9z M95.9,78l7.3,44.9H51   L95.9,78z"/><g><path d="M289.3,47.2L289.3,47.2L289.3,47.2c-12.9-6.1-23.4-16.6-29.5-29.5l0,0l0,0c-6.1,12.9-16.5,23.3-29.5,29.5l0,0l0,0    c12.9,6.1,23.4,16.6,29.5,29.5l0,0l0,0C266,63.7,276.4,53.3,289.3,47.2z"/></g><g><path d="M60.3,253.2L60.3,253.2L60.3,253.2c-10.9-5.2-19.7-13.9-24.8-24.8l0,0l0,0c-5.2,10.9-13.9,19.7-24.8,24.8l0,0l0,0    c10.9,5.2,19.7,13.9,24.8,24.8l0,0l0,0C40.7,267.1,49.4,258.4,60.3,253.2z"/></g><g><path d="M260.9,219L260.9,219L260.9,219c-7.3-3.5-13.2-9.3-16.6-16.6l0,0l0,0c-3.5,7.3-9.3,13.2-16.6,16.6l0,0l0,0    c7.3,3.5,13.2,9.3,16.6,16.6l0,0l0,0C247.8,228.3,253.6,222.5,260.9,219z"/></g></g><text x="0" y="315" fill="#000000" font-size="5px" font-weight="bold" font-family="'Helvetica Neue', Helvetica, Arial-Unicode, Arial, Sans-serif">Created by Angelo Troiano</text><text x="0" y="320" fill="#000000" font-size="5px" font-weight="bold" font-family="'Helvetica Neue', Helvetica, Arial-Unicode, Arial, Sans-serif">from the Noun Project</text></svg>